<svg id="Layer_1" data-name="Layer 1" xmlns="http://www.w3.org/2000/svg" viewBox="0 0 100 100"><title>Artboard 1</title><path d="M92,83.37a29.24,29.24,0,0,1-9.63-21.46l-.07-27.84a32,32,0,0,0-32.12-32h0a32,32,0,0,0-32.12,32L18,61.91A29.35,29.35,0,0,1,8.46,83.36a1.7,1.7,0,0,0,1.75,2.84A6.58,6.58,0,0,1,16,86.3c2.32,1.11,3.23,7.2,6.61,8.27,2.64.83,6.9-3.54,10.21-2.92,2.79.53,5.1,6.22,8.37,6.51,2.87.25,6.16-4.91,9.41-4.91s6.45,5.16,9.28,4.91c3.24-.28,5.5-6,8.24-6.48,3.26-.62,7.49,3.76,10.08,2.93,3.34-1.06,4.17-7.14,6.44-8.26a6.55,6.55,0,0,1,5.71-.15A1.7,1.7,0,0,0,92,83.37ZM39.18,41.32a5,5,0,1,1,5-5A5,5,0,0,1,39.18,41.32Zm22.15,0a5,5,0,1,1,5-5A5,5,0,0,1,61.33,41.32Z"/></svg>